<svg xmlns="http://www.w3.org/2000/svg" viewBox="0 0 20 20">
  <path fill="currentColor" d="M19.345 11.104l-.303-.413a1.305 1.305 0 01-.013-1.52l.296-.419c.45-.64.241-1.528-.451-1.901l-.451-.242a1.299 1.299 0 01-.668-1.365l.086-.504a1.302 1.302 0 00-1.23-1.516l-.512-.02a1.306 1.306 0 01-1.196-.94l-.144-.491a1.299 1.299 0 00-1.766-.832l-.471.2c-.513.222-1.111.091-1.484-.327l-.34-.381a1.3 1.3 0 00-1.95.016L8.41.835a1.303 1.303 0 01-1.48.348L6.457.986a1.305 1.305 0 00-1.754.86l-.135.497a1.294 1.294 0 01-1.18.954l-.512.03A1.301 1.301 0 001.67 4.862l.094.504a1.3 1.3 0 01-.648 1.373l-.446.25a1.3 1.3 0 00-.418 1.906l.303.413c.328.451.336 1.062.012 1.52l-.295.419c-.45.64-.242 1.528.451 1.901l.45.242c.493.262.763.812.669 1.365l-.086.504a1.302 1.302 0 001.23 1.516l.511.02c.558.025 1.041.402 1.197.94l.144.491a1.299 1.299 0 001.766.832l.471-.2a1.299 1.299 0 011.484.327l.34.381a1.299 1.299 0 001.95-.016l.337-.386a1.303 1.303 0 011.479-.348l.475.197c.726.299 1.545-.107 1.754-.86l.136-.497a1.294 1.294 0 011.18-.954l.512-.03a1.301 1.301 0 001.205-1.536l-.094-.504a1.3 1.3 0 01.647-1.373l.447-.25a1.3 1.3 0 00.418-1.906zM5.12 8.301c0-1.114.902-2.016 2.017-2.016 1.114 0 2.016.902 2.016 2.016a2.017 2.017 0 01-4.033 0zm2.406 5.2a.493.493 0 01-.758-.627l5.29-6.372a.493.493 0 01.759.627l-5.291 6.373zm4.926.21a2.015 2.015 0 01-2.016-2.016c0-1.115.901-2.017 2.016-2.017s2.016.902 2.016 2.017a2.015 2.015 0 01-2.016 2.016z"/>
</svg>
