<svg xmlns="http://www.w3.org/2000/svg" width="451" height="347" viewBox="0 0 451 347">
  <g fill="none" fill-rule="evenodd">
    <g transform="translate(22)">
      <polygon fill="#3E4759" points="201.511 0 0 116.094 133.489 193 335 76.906"/>
      <path fill="#353C4C" d="M159.244912,82.0492345 C167.014226,77.5319028 180.605853,78.0994525 189.577725,83.3154471 C198.548994,88.5314417 199.524906,96.4334337 191.755592,100.950765 C183.985676,105.468097 170.394049,104.900547 161.422176,99.6845529 C152.450907,94.4685583 151.474996,86.5665663 159.244912,82.0492345 Z"/>
      <polygon fill="#3E4759" points="182 87 177.445 96 165 89.412"/>
    </g>
    <g transform="translate(79 190)">
      <polygon fill="#3E4759" points="164.217 0 0 94.439 108.783 157 273 62.561"/>
      <path fill="#353C4C" d="M69.4162543,86.8787752 C81.8832922,79.6510444 103.693112,80.559124 118.089838,88.9047154 C132.485596,97.2503067 134.051593,109.893494 121.584555,117.121225 C109.116549,124.348956 87.3067294,123.440876 72.9100041,115.095285 C58.514246,106.749693 56.9482491,94.106506 69.4162543,86.8787752 Z"/>
      <polygon fill="#353C4C" fill-rule="nonzero" points="117.428 51.085 195.111 51.085 199.86 58.885 122.177 58.885" transform="rotate(-30 158.644 54.985)"/>
      <polygon fill="#353C4C" fill-rule="nonzero" points="132.428 64.085 200.687 64.085 204.86 71.885 136.601 71.885" transform="rotate(-30 168.644 67.985)"/>
    </g>
    <path fill="#3E4759" d="M8.41625429,186.878775 C20.8832922,179.651044 42.6931123,180.559124 57.0898376,188.904715 C71.4855957,197.250307 73.0515926,209.893494 60.5845547,217.121225 C48.1165495,224.348956 26.3067294,223.440876 11.9100041,215.095285 C-2.48575397,206.749693 -4.0517509,194.106506 8.41625429,186.878775 Z"/>
    <g fill-rule="nonzero" transform="translate(297 77)">
      <polygon fill="#3E4759" points=".041 35.702 135.165 35.702 153.943 77.102 18.818 77.102" transform="rotate(-30 76.992 56.402)"/>
      <polygon fill="#353C4C" points="43.098 50.585 111.357 50.585 115.53 58.385 47.271 58.385" transform="rotate(-30 79.314 54.485)"/>
    </g>
  </g>
</svg>
