<?xml version="1.0" encoding="UTF-8"?>
<svg width="656px" height="324px" viewBox="0 0 656 324" version="1.1" xmlns="http://www.w3.org/2000/svg" xmlns:xlink="http://www.w3.org/1999/xlink">
    <!-- Generator: Sketch 55 (78076) - https://sketchapp.com -->
    <title>Artboard</title>
    <desc>Created with Sketch.</desc>
    <g id="Artboard" stroke="none" stroke-width="1" fill="none" fill-rule="evenodd">
        <rect id="Rectangle-Copy-126" fill="#FFFFFF" x="-27" y="0" width="893" height="309"></rect>
        <g id="Group-2" stroke="#E6E6E6">
            <rect id="Rectangle" x="0.5" y="0.5" width="655" height="1"></rect>
            <rect id="Rectangle-Copy-127" x="0.5" y="5.5" width="655" height="1"></rect>
            <rect id="Rectangle-Copy-128" x="0.5" y="10.5" width="655" height="1"></rect>
            <rect id="Rectangle-Copy-129" x="0.5" y="15.5" width="655" height="1"></rect>
            <rect id="Rectangle-Copy-130" x="0.5" y="20.5" width="655" height="1"></rect>
            <rect id="Rectangle-Copy-131" x="0.5" y="25.5" width="655" height="1"></rect>
            <rect id="Rectangle-Copy-132" x="0.5" y="30.5" width="655" height="1"></rect>
            <rect id="Rectangle-Copy-133" x="0.5" y="35.5" width="655" height="1"></rect>
            <rect id="Rectangle-Copy-134" x="0.5" y="40.5" width="655" height="1"></rect>
            <rect id="Rectangle-Copy-135" x="0.5" y="45.5" width="655" height="1"></rect>
            <rect id="Rectangle-Copy-136" x="0.5" y="50.5" width="655" height="1"></rect>
            <rect id="Rectangle-Copy-137" x="0.5" y="55.5" width="655" height="1"></rect>
            <rect id="Rectangle-Copy-138" x="0.5" y="60.5" width="655" height="1"></rect>
            <rect id="Rectangle-Copy-139" x="0.5" y="65.5" width="655" height="1"></rect>
            <rect id="Rectangle-Copy-140" x="0.5" y="70.5" width="655" height="1"></rect>
            <rect id="Rectangle-Copy-141" x="0.5" y="75.5" width="655" height="1"></rect>
            <rect id="Rectangle-Copy-142" x="0.5" y="80.5" width="655" height="1"></rect>
            <rect id="Rectangle-Copy-143" x="0.5" y="85.5" width="655" height="1"></rect>
            <rect id="Rectangle-Copy-144" x="0.5" y="90.5" width="655" height="1"></rect>
            <rect id="Rectangle-Copy-145" x="0.5" y="95.5" width="655" height="1"></rect>
            <rect id="Rectangle-Copy-146" x="0.5" y="100.5" width="655" height="1"></rect>
            <rect id="Rectangle-Copy-147" x="0.5" y="105.5" width="655" height="1"></rect>
            <rect id="Rectangle-Copy-148" x="0.5" y="110.5" width="655" height="1"></rect>
            <rect id="Rectangle-Copy-149" x="0.5" y="115.5" width="655" height="1"></rect>
            <rect id="Rectangle-Copy-150" x="0.5" y="120.5" width="655" height="1"></rect>
            <rect id="Rectangle-Copy-151" x="0.5" y="125.5" width="655" height="1"></rect>
            <rect id="Rectangle-Copy-152" x="0.5" y="130.5" width="655" height="1"></rect>
            <rect id="Rectangle-Copy-153" x="0.5" y="135.5" width="655" height="1"></rect>
            <rect id="Rectangle-Copy-154" x="0.5" y="140.5" width="655" height="1"></rect>
            <rect id="Rectangle-Copy-155" x="0.5" y="145.5" width="655" height="1"></rect>
            <rect id="Rectangle-Copy-156" x="0.5" y="150.5" width="655" height="1"></rect>
            <rect id="Rectangle-Copy-157" x="0.5" y="155.5" width="655" height="1"></rect>
            <rect id="Rectangle-Copy-158" x="0.5" y="160.5" width="655" height="1"></rect>
            <rect id="Rectangle-Copy-159" x="0.5" y="165.5" width="655" height="1"></rect>
            <rect id="Rectangle-Copy-160" x="0.5" y="170.5" width="655" height="1"></rect>
            <rect id="Rectangle-Copy-161" x="0.5" y="175.5" width="655" height="1"></rect>
            <rect id="Rectangle-Copy-162" x="0.5" y="180.5" width="655" height="1"></rect>
            <rect id="Rectangle-Copy-163" x="0.5" y="185.5" width="655" height="1"></rect>
            <rect id="Rectangle-Copy-164" x="0.5" y="190.5" width="655" height="1"></rect>
            <rect id="Rectangle-Copy-165" x="0.5" y="195.5" width="655" height="1"></rect>
            <rect id="Rectangle-Copy-166" x="0.5" y="200.5" width="655" height="1"></rect>
            <rect id="Rectangle-Copy-167" x="0.5" y="205.5" width="655" height="1"></rect>
            <rect id="Rectangle-Copy-168" x="0.5" y="210.5" width="655" height="1"></rect>
            <rect id="Rectangle-Copy-169" x="0.5" y="215.5" width="655" height="1"></rect>
            <rect id="Rectangle-Copy-170" x="0.5" y="220.5" width="655" height="1"></rect>
            <rect id="Rectangle-Copy-171" x="0.5" y="225.5" width="655" height="1"></rect>
            <rect id="Rectangle-Copy-172" x="0.5" y="230.5" width="655" height="1"></rect>
            <rect id="Rectangle-Copy-173" x="0.5" y="235.5" width="655" height="1"></rect>
            <rect id="Rectangle-Copy-174" x="0.5" y="240.5" width="655" height="1"></rect>
            <rect id="Rectangle-Copy-175" x="0.5" y="245.5" width="655" height="1"></rect>
            <rect id="Rectangle-Copy-176" x="0.5" y="250.5" width="655" height="1"></rect>
            <rect id="Rectangle-Copy-177" x="0.5" y="255.5" width="655" height="1"></rect>
            <rect id="Rectangle-Copy-178" x="0.5" y="260.5" width="655" height="1"></rect>
            <rect id="Rectangle-Copy-179" x="0.5" y="265.5" width="655" height="1"></rect>
            <rect id="Rectangle-Copy-180" x="0.5" y="270.5" width="655" height="1"></rect>
            <rect id="Rectangle-Copy-181" x="0.5" y="275.5" width="655" height="1"></rect>
            <rect id="Rectangle-Copy-182" x="0.5" y="280.5" width="655" height="1"></rect>
            <rect id="Rectangle-Copy-183" x="0.5" y="285.5" width="655" height="1"></rect>
            <rect id="Rectangle-Copy-184" x="0.5" y="290.5" width="655" height="1"></rect>
            <rect id="Rectangle-Copy-185" x="0.5" y="295.5" width="655" height="1"></rect>
            <rect id="Rectangle-Copy-186" x="0.5" y="300.5" width="655" height="1"></rect>
            <rect id="Rectangle-Copy-187" x="0.5" y="305.5" width="655" height="1"></rect>
            <rect id="Rectangle-Copy-188" x="0.5" y="310.5" width="655" height="1"></rect>
            <rect id="Rectangle-Copy-189" x="0.5" y="315.5" width="655" height="1"></rect>
            <rect id="Rectangle-Copy-190" x="0.5" y="320.5" width="655" height="1"></rect>
        </g>
        <rect id="Rectangle" fill="#FFFFFF" x="145" y="0" width="365" height="253"></rect>
        <g id="Group-3" transform="translate(185.000000, 31.000000)">
            <rect id="Rectangle" fill="#F79C63" opacity="0.1" x="74" y="2" width="142" height="12"></rect>
            <rect id="Rectangle-Copy" fill="#F79C63" opacity="0.1" x="74" y="26" width="142" height="12"></rect>
            <polygon id="Triangle-Copy" fill="#537DD4" transform="translate(206.000000, 21.000000) scale(1, -1) translate(-206.000000, -21.000000) " points="206 18 211 24 201 24"></polygon>
            <text id="Pick-date" font-family="HelveticaNeue, Helvetica Neue" font-size="16" font-weight="normal" fill="#000000">
                <tspan x="82" y="26">Pick date</tspan>
            </text>
            <text id="12px" font-family="SFMono-Semibold, SF Mono" font-size="12" font-style="condensed" font-weight="500" fill="#F77728">
                <tspan x="35" y="11">12px</tspan>
            </text>
            <text id="12px-copy-2" font-family="SFMono-Semibold, SF Mono" font-size="12" font-style="condensed" font-weight="500" fill="#F77728">
                <tspan x="0" y="171">12px</tspan>
            </text>
            <text id="12px-copy-3" font-family="SFMono-Semibold, SF Mono" font-size="12" font-style="condensed" font-weight="500" fill="#F77728">
                <tspan x="0" y="195">12px</tspan>
            </text>
            <text id="12px-copy" font-family="SFMono-Semibold, SF Mono" font-size="12" font-style="condensed" font-weight="500" fill="#F77728">
                <tspan x="35" y="35">12px</tspan>
            </text>
            <polyline id="Path-2" stroke="#F77728" stroke-linecap="square" points="68.5 26.5 70.5 26.5 70.5 37.5 68.5 37.5"></polyline>
            <polyline id="Path-2" stroke="#F77728" stroke-linecap="square" transform="translate(79.000000, 43.500000) rotate(-90.000000) translate(-79.000000, -43.500000) " points="78 40 80 40 80 47 78 47"></polyline>
            <rect id="Rectangle" fill="#F79C63" opacity="0.1" x="75" y="2" width="8" height="36"></rect>
            <text id="8px" font-family="SFMono-Semibold, SF Mono" font-size="12" font-style="condensed" font-weight="500" fill="#F77728">
                <tspan x="71" y="56.5">8px</tspan>
            </text>
            <polyline id="Path-2" stroke="#F77728" stroke-linecap="square" points="68.5 2.5 70.5 2.5 70.5 13.5 68.5 13.5"></polyline>
            <polyline id="Path-2-Copy-4" stroke="#F77728" stroke-linecap="square" points="34.5 161.5 36.5 161.5 36.5 172.5 34.5 172.5"></polyline>
            <polyline id="Path-2-Copy-5" stroke="#F77728" stroke-linecap="square" points="34.5 185.5 36.5 185.5 36.5 196.5 34.5 196.5"></polyline>
            <rect id="Rectangle-6" stroke="#000000" opacity="0.3" x="74.5" y="1.5" width="141" height="37" rx="4"></rect>
            <g id="Group-4" transform="translate(65.000000, 87.000000)">
                <polyline id="Path-2-Copy" stroke="#F77728" stroke-width="0.5" stroke-linecap="square" transform="translate(31.000000, 29.000000) rotate(-90.000000) translate(-31.000000, -29.000000) " points="30 25.5 32 25.5 32 32.5 30 32.5"></polyline>
                <polyline id="Path-2-Copy-2" stroke="#F77728" stroke-width="0.5" stroke-linecap="square" points="21 19 23 19 23 23 21 23"></polyline>
                <polyline id="Path-2-Copy-3" stroke="#F77728" stroke-width="0.5" stroke-linecap="square" points="21 5 23 5 23 9 21 9"></polyline>
                <text id="8px-copy" font-family="SFMono-Semibold, SF Mono" font-size="10" font-style="condensed" font-weight="500" fill="#F77728">
                    <tspan x="23" y="42">8px</tspan>
                </text>
                <text id="4px" font-family="SFMono-Semibold, SF Mono" font-size="10" font-style="condensed" font-weight="500" fill="#F77728">
                    <tspan x="0" y="24">4px</tspan>
                </text>
                <text id="4px-copy" font-family="SFMono-Semibold, SF Mono" font-size="10" font-style="condensed" font-weight="500" fill="#F77728">
                    <tspan x="0" y="10">4px</tspan>
                </text>
                <rect id="Rectangle-9" fill="#000000" x="26" y="4" width="98" height="19.973262" rx="4"></rect>
                <rect id="Rectangle" fill="#F79C63" opacity="0.1" x="26" y="19" width="98" height="5"></rect>
                <text id="REFUNDABLE" font-family="HelveticaNeue-Bold, Helvetica Neue" font-size="12" font-weight="bold" fill="#FFFFFF">
                    <tspan x="34" y="17.9872995">REFUNDABLE</tspan>
                </text>
            </g>
            <rect id="Rectangle-5" fill="#000000" x="42" y="160.951872" width="200" height="37" rx="4"></rect>
            <text id="Continue" font-family="HelveticaNeue-Bold, Helvetica Neue" font-size="16" font-weight="bold" fill="#FFFFFF">
                <tspan x="107.48" y="184.976604">Continue</tspan>
            </text>
        </g>
    </g>
</svg>