<svg xmlns="http://www.w3.org/2000/svg" width="60" height="56" viewBox="0 0 60 56">
  <path d="M821.16834,0 C812.156479,0 804.180443,4.49884325 799.352552,11.3641713 C800.35172,12.0160104 801.325666,12.9098941 802.267646,14.0590196 C805.869379,8.67352658 811.693016,4.89504959 818.431065,4.08279239 L821.167949,8.7141932 L823.904832,4.08269463 C834.262309,5.33094499 842.49515,13.5633951 843.743987,23.9207741 L839.111804,26.6580486 L843.744085,29.3954209 C842.909246,36.320087 838.943468,42.2817558 833.317299,45.8548467 C833.675673,46.6717962 833.87754,47.5071239 833.913221,48.368357 C833.939518,48.9977122 833.874608,49.5923638 833.744103,50.1569065 C842.118788,45.656988 847.826877,36.8130721 847.826877,26.6585374 C847.826877,11.9586275 835.86825,0 821.16834,0 Z M827.971299,43.9040218 C821.825849,38.9650796 820.107391,41.3928576 817.31899,44.1808676 C815.37227,46.1282711 810.445939,42.0617063 806.192268,37.8078404 C801.938305,33.5533879 797.872522,28.6278383 799.819045,26.6808259 C802.607642,23.8927181 805.034736,22.1732823 800.094425,16.0294936 C795.155776,9.88345645 791.863539,14.6019581 789.162434,17.3032583 C786.044008,20.4206094 788.998106,32.0376763 800.479585,43.5209148 C811.962628,55.0025892 823.579597,57.9547321 826.696166,54.8385541 C829.396977,52.1371562 834.116848,48.8453101 827.971299,43.9040218 Z M809.254778,30.8304836 C809.254778,25.3678608 815.649996,24.3946967 815.649996,22.2630226 C815.649996,21.228663 814.822,20.7944295 814.056177,20.7944295 C812.648779,20.7944295 811.863112,22.3666443 811.863112,22.3666443 L809.17276,20.5664618 C809.17276,20.5664618 810.538709,17.379606 814.387669,17.379606 C816.808702,17.379606 819.436782,18.7662793 819.436782,21.9115886 C819.436782,26.5264686 813.476775,27.4166376 813.373154,29.3204418 L819.66475,29.3204418 L819.66475,32.4243025 L809.420671,32.4243025 C809.316951,31.8449986 809.254778,31.3279654 809.254778,30.8304836 Z M821.177627,26.6509124 L826.889919,17.627516 L831.318378,17.627516 L831.318378,25.8436408 L833.077112,25.8436408 L833.077112,28.8438798 L831.318378,28.8438798 L831.318378,32.424498 L827.73776,32.424498 L827.73776,28.8438798 L821.177724,28.8438798 L821.177724,26.6509124 L821.177627,26.6509124 Z M827.737662,25.843543 L827.737662,22.532439 C827.737662,21.7251674 827.862008,20.8764471 827.862008,20.8764471 L827.820559,20.8764471 C827.820559,20.8764471 827.510574,21.7873404 827.096185,22.4081907 L824.861769,25.8022899 L824.861769,25.8437386 L827.737662,25.843543 Z" transform="translate(-788)"/>
</svg>
