<svg xmlns="http://www.w3.org/2000/svg" width="99" height="94" viewBox="0 0 99 94">
  <path fill-rule="evenodd" d="M1035.58275,928.283154 C1037.98687,930.648303 1039.46558,931.069977 1040.31004,932.434182 C1041.52297,934.391043 1040.42541,936.446477 1038.83737,938.124656 C1032.89292,944.410828 1014.94721,948.045867 1006.49172,950.499245 C1004.45728,951.088859 1002.68077,952.504784 1001.17186,954.320479 C1000.35639,955.301952 1000.15947,958.628494 1000,960 L1098.66667,960 C1098.5078,958.628494 1098.31149,955.301952 1097.49541,954.320479 C1095.9865,952.504784 1094.20938,951.088859 1092.17555,950.499245 C1083.72006,948.045867 1065.77435,944.410828 1059.8293,938.124656 C1058.24246,936.446477 1057.14551,934.391043 1058.35723,932.434182 C1059.2029,931.069977 1060.68161,930.648303 1063.08573,928.283154 C1065.99846,925.417837 1064.32705,928.128601 1064.21107,928.880678 C1063.67589,932.360556 1070.47144,928.957346 1072.6726,927.063767 C1075.4923,924.638987 1072.39897,930.608752 1081.85717,923.27174 C1088.54884,918.079 1079.09063,920.613306 1077.4899,905.940499 C1074.73724,880.71184 1069.30442,873.937669 1059.93682,868.455903 C1057.82748,867.21096 1055.00415,866.269038 1052.93166,866.0366 C1049.11829,865.608841 1052.33425,869.059512 1049.40461,869.669814 C1049.37985,869.664946 1049.3575,869.65947 1049.33454,869.653385 C1049.31038,869.65947 1049.28682,869.664946 1049.26326,869.669814 C1046.33423,869.059512 1049.55019,865.608841 1045.73682,866.0366 C1043.66312,866.269038 1040.841,867.21096 1038.73166,868.455903 C1029.36285,873.937669 1023.93124,880.71184 1021.17858,905.940499 C1019.57785,920.613306 1010.11843,918.079 1016.8113,923.27174 C1026.2683,930.608752 1023.17617,924.638987 1025.99588,927.063767 C1028.19703,928.957346 1034.99138,932.360556 1034.4574,928.880678 C1034.34143,928.128601 1032.67002,925.417837 1035.58275,928.283154" transform="translate(-1000 -866)"/>
</svg>
