<svg xmlns="http://www.w3.org/2000/svg" width="80" height="106" viewBox="0 0 80 106">
  <path fill-rule="evenodd" d="M859.057875,959.78175 C859.537875,959.617374 860.477875,957.564968 860.256336,955.292113 C859.437875,946.88662 846.94249,946.885852 841.059413,945.147605 C835.565567,943.525345 832.517105,940.982113 836.194798,939.590287 C844.870182,936.309663 847.558644,928.503301 849.033259,929.737663 C852.999413,929.648562 854.817105,928.852794 856.404028,926.902548 C859.994798,922.492026 860.975567,917.109837 857.656336,914.45062 C856.173259,913.263113 854.51249,915.063576 855.437875,911.016374 C860.150952,890.423953 847.579413,874.293519 827.774028,868.930533 C824.201721,867.963475 820.598644,866.948026 821.773259,862.1642 C821.991721,861.273185 824.939413,859.273779 825.018644,862.320895 C825.040952,863.190403 825.686336,863.322519 827.066336,861.546634 C829.430182,858.505663 827.876336,855.478519 824.443259,854.375504 C822.176336,853.646562 819.44249,853.942287 817.491721,855.585287 C814.080952,858.125446 814.200952,861.818548 815.803259,863.622852 C817.910952,865.994026 820.637105,867.713069 816.886336,868.133997 C795.160952,872.509185 780.877105,889.277924 785.851721,911.016374 C786.777875,915.063576 785.116336,913.263113 783.633259,914.45062 C780.313259,917.109837 781.294798,922.492026 784.884798,926.902548 C786.47249,928.852794 788.290182,929.648562 792.256336,929.737663 C793.730952,928.503301 796.419413,936.309663 805.094028,939.590287 C808.77249,940.982113 805.723259,943.525345 800.230952,945.147605 C794.347105,946.885852 781.851721,946.88662 781.033259,955.292113 C780.811721,957.564968 781.751721,959.617374 782.231721,959.78175 L859.057875,959.78175 Z" transform="translate(-781 -854)"/>
</svg>
