<svg xmlns="http://www.w3.org/2000/svg" width="100" height="92" viewBox="0 0 100 92">
  <path fill-rule="evenodd" d="M73.82625,952.540543 C84.275,945.322611 112.600625,941.728978 107.886875,933.992217 C104.684375,932.348734 101.156875,926.808706 99.578125,923.780842 C98.815625,922.272543 98.1775,920.731074 95.730625,921.240516 C92.018125,921.468325 86.53875,910.885196 89.67375,907.463047 C89.903125,907.212706 90.745,906.797142 91.021875,906.558067 C92.475,905.307618 91.9425,904.888298 91.460625,902.031291 C89.699375,891.571455 93.595625,880.769278 104.099375,873.9037 C106.6275,872.429822 109.010625,871.150584 112.57625,870.054094 C117.185625,868.636543 124.985625,867.03687 129.433125,868.726666 C131.31875,869.443264 132.981875,870.348244 133.43375,871.690693 C133.88125,873.018747 132.515625,874.635944 133.381875,875.109713 C134.93625,876.206203 138.224375,871.4754 143.09625,877.13872 C148.55625,883.484842 149.556875,893.010285 148.05875,901.44174 C147.72875,903.301142 146.303125,904.946502 148.175625,906.558067 C148.453125,906.797142 149.29375,907.212706 149.52375,907.463047 C152.659375,910.885196 147.18,921.468325 143.4675,921.240516 C141.020625,920.731074 140.3825,922.272543 139.619375,923.780842 C138.040625,926.808706 134.513125,932.348734 131.31,933.992217 C126.596875,941.728978 154.923125,945.322611 165.37125,952.540543 C167.615625,954.089523 169.086875,957.306393 169.1975,959.359183 L70,959.359183 C70.110625,957.306393 71.581875,954.089523 73.82625,952.540543 Z" transform="translate(-70 -868)"/>
</svg>
