<svg xmlns="http://www.w3.org/2000/svg" width="100" height="92" viewBox="0 0 100 92">
  <path fill-rule="evenodd" d="M307,959.164462 C307.113816,957.065547 308.925658,953.884976 311.478289,952.748776 C318.315132,949.703576 341.666447,942.825919 345.065132,938.585376 C346.858553,936.347147 347.558553,933.30129 344.708553,931.169519 C342.167763,929.11069 338.564474,926.616833 336.204605,923.882462 C335.282895,922.340147 334.017763,919.969176 331.723684,920.489633 C328.478947,920.576376 324.064474,910.888776 326.759211,907.616205 C326.994079,907.359919 327.717763,906.934747 328.001316,906.690947 C329.079605,906.228976 329.490132,905.799862 328.682895,903.05629 C328.388158,902.054147 328.028289,901.743319 326.998684,901.46469 C325.115789,900.957376 324.046053,904.37189 324.018421,907.595833 C323.986842,911.305405 325.517763,915.19569 324.815789,917.413547 C323.936842,920.185376 320.491447,921.414233 319.932895,919.836433 C319.626316,918.971633 320.068421,916.76889 318.390132,915.519662 C305.681579,906.058776 312.580921,882.590233 325.578289,889.577633 C327.618421,890.674405 328.4625,891.503719 328.807895,889.552662 C329.617105,884.994062 332.2,877.515119 342.309211,871.211147 C344.819737,869.645833 351.476974,867.439147 354.227632,868.130462 C355.042105,868.334833 355.567105,868.821776 355.677632,869.303462 C355.846053,870.044062 357.225,870.044062 357.394079,869.303462 C357.504605,868.821776 358.030263,868.334833 358.843421,868.130462 C361.594737,867.439147 368.251974,869.645833 370.761842,871.211147 C380.871711,877.515119 383.453947,884.994062 384.263816,889.552662 C384.609868,891.503719 385.452632,890.674405 387.493421,889.577633 C400.490789,882.590233 407.389474,906.058776 394.682237,915.519662 C393.003289,916.76889 393.445395,918.971633 393.138816,919.836433 C392.579605,921.414233 389.133553,920.185376 388.256579,917.413547 C387.553947,915.19569 389.084868,911.305405 389.052632,907.595833 C389.025658,904.37189 387.955263,900.957376 386.072368,901.46469 C385.042763,901.743319 384.682237,902.054147 384.3875,903.05629 C383.581579,905.799862 383.992105,906.228976 385.069737,906.690947 C385.353947,906.934747 386.077632,907.359919 386.3125,907.616205 C389.007237,910.888776 384.592763,920.576376 381.348026,920.489633 C379.053947,919.969176 377.788816,922.340147 376.867105,923.882462 C374.507237,926.616833 370.903947,929.11069 368.363158,931.169519 C365.513158,933.30129 366.2125,936.347147 368.006579,938.585376 C371.405263,942.825919 394.756579,949.703576 401.593421,952.748776 C404.145395,953.884976 405.957237,957.065547 406.071053,959.164462 L307,959.164462" transform="translate(-307 -868)"/>
</svg>
