<svg xmlns="http://www.w3.org/2000/svg" width="103" height="94" viewBox="0 0 103 94">
  <path fill-rule="evenodd" d="M607.86872,869.109129 C608.483995,871.446123 612.885746,871.240978 614.418757,872.794047 C616.355593,874.755632 617.777974,879.344488 617.790508,882.50206 C617.798138,884.301658 617.881519,886.103029 617.616116,888.243154 C617.553989,888.742123 617.410116,892.48084 617.194852,894.803054 C617.091307,895.916865 617.282593,896.224878 618.118037,896.539393 C619.068471,896.898249 619.40254,897.960035 619.084275,899.443343 C618.407418,902.60328 617.54854,910.164664 616.448238,912.201331 C616.158857,912.736953 615.613884,913.144286 615.16537,913.248928 C614.388238,913.572312 613.891222,913.537431 613.592577,914.838651 C612.568026,919.543381 611.703698,923.694161 610.783238,926.760098 C610.175048,927.831934 609.72381,928.178375 609.016979,928.669066 C608.519963,929.014915 607.611492,929.925356 607.540101,930.588676 C607.358624,932.290727 607.852915,934.358136 609.494376,935.150337 C619.847238,939.042173 632.16909,944.496538 640.268487,946.401959 C645.783619,947.699632 646.771111,953.741645 646.771111,959.273456 L544,959.273456 C544,953.741645 544.987492,947.699632 550.502624,946.401959 C558.602021,944.496538 570.922783,939.042173 581.27619,935.150337 C582.918196,934.358136 583.411942,932.290727 583.229921,930.588676 C583.159619,929.925356 582.250603,929.014915 581.753042,928.669066 C581.046757,928.178375 580.595519,927.831934 579.986783,926.760098 C579.067413,923.694161 578.201995,919.543381 577.177989,914.838651 C576.879344,913.537431 576.382328,913.572312 575.605196,913.248928 C575.156683,913.144286 574.611709,912.736953 574.322873,912.201331 C573.222571,910.164664 572.363148,902.60328 571.686291,899.443343 C571.368026,897.960035 571.702095,896.898249 572.651984,896.539393 C573.487974,896.224878 573.679259,895.916865 573.575714,894.803054 C573.36045,892.48084 573.216577,888.742123 573.154995,888.243154 C572.889048,886.103029 572.818201,884.29279 572.980058,882.50206 C573.25309,879.485783 574.579556,876.31284 576.607947,874.578274 C580.641841,871.126878 586.450169,868.481871 591.765296,867.097293 C593.792053,866.568764 596.915296,866.076299 599.844529,866.01245 C602.327429,865.959242 607.03273,865.934412 607.86872,869.109129" transform="translate(-544 -866)"/>
</svg>
