<svg xmlns="http://www.w3.org/2000/svg" width="90" height="91" viewBox="0 0 90 91">
  <path fill-rule="evenodd" d="M2835,1164.49 L2842,1164.49 L2842,1147.49 L2835,1147.49 L2835,1164.49 Z M2790,1164.49 L2797,1164.49 L2797,1147.49 L2790,1147.49 L2790,1164.49 Z M2781,1187.49 L2851,1187.49 L2851,1227.49 L2781,1227.49 L2781,1187.49 Z M2851,1157.49 L2846.5,1157.49 L2846.5,1167.49 L2830.5,1167.49 L2830.5,1157.49 L2801.5,1157.49 L2801.5,1167.49 L2785.5,1167.49 L2785.5,1157.49 L2781,1157.49 C2775.5,1157.49 2771,1161.99 2771,1167.49 L2771,1227.49 C2771,1232.99 2775.5,1237.49 2781,1237.49 L2851,1237.49 C2856.5,1237.49 2861,1232.99 2861,1227.49 L2861,1167.49 C2861,1161.99 2856.5,1157.49 2851,1157.49 L2851,1157.49 Z" transform="translate(-2771 -1147)"/>
</svg>
