<svg xmlns="http://www.w3.org/2000/svg" viewBox="0 0 24 24">
  <path fill="#000" fill-rule="nonzero" d="M18.246 15.876c.954.95 1.908 1.898 2.857 2.852.794.8.789 1.778-.01 2.587-.54.544-1.114 1.064-1.623 1.633-.744.834-1.673 1.104-2.742 1.044-1.553-.085-2.982-.6-4.36-1.269-3.061-1.488-5.678-3.55-7.87-6.157-1.624-1.928-2.962-4.03-3.841-6.398-.43-1.144-.734-2.317-.64-3.56.06-.765.345-1.42.91-1.953.609-.58 1.183-1.184 1.782-1.773.78-.77 1.758-.77 2.542-.005.485.474.96.959 1.439 1.438.464.47.929.929 1.393 1.398.819.824.819 1.783.005 2.602-.584.59-1.164 1.179-1.758 1.753-.155.155-.17.28-.09.47.395.939.959 1.773 1.593 2.552 1.279 1.568 2.722 2.961 4.445 4.045.37.23.78.4 1.164.61.194.11.33.074.49-.09.583-.6 1.178-1.19 1.772-1.779.78-.774 1.758-.774 2.542 0zm-.954-3.98a6.355 6.355 0 0 0-1.778-3.436 6.356 6.356 0 0 0-3.635-1.813l.26-1.853a8.192 8.192 0 0 1 4.694 2.343 8.237 8.237 0 0 1 2.302 4.444l-1.843.315zm2.882-8.01a13.688 13.688 0 0 1 3.825 7.376l-1.842.314a11.773 11.773 0 0 0-3.302-6.367 11.782 11.782 0 0 0-6.732-3.356L12.383 0a13.588 13.588 0 0 1 7.79 3.885z"/>
</svg>
