<svg xmlns="http://www.w3.org/2000/svg" width="39" height="56" viewBox="0 0 39 56">
  <path d="M100.067938,12.0337656 C101.733719,14.3708906 102.729906,17.3176719 102.729906,20.5177656 C102.729906,21.0483438 102.701578,21.5715937 102.648422,22.0865312 C100.180266,20.4243594 97.8909375,17.5899062 96.7253281,16.0174219 C98.3004375,14.4960156 99.3854375,13.0660469 100.067938,12.0337656 Z M96.2344531,8.4511875 C96.7674375,8.7723125 97.2759219,9.13675 97.7582656,9.53771875 C97.23425,10.4328437 95.9196719,12.4195312 93.549625,14.4791719 C89.4288125,18.0603281 84.1675469,20.2166562 77.9035313,20.8943437 C77.9004688,20.7692187 77.8987188,20.6437656 77.8987188,20.517875 C77.8987188,15.3157812 80.5282031,10.7802187 84.3943906,8.45107812 C84.146,7.76901562 84.0168281,7.04440625 84.0168281,6.29748437 C84.0168281,2.82504687 86.841875,0 90.3143125,0 C93.78675,0 96.6117969,2.82504687 96.6117969,6.29748437 C96.6117969,7.04440625 96.4827344,7.769125 96.2344531,8.4511875 Z M94.219875,18.1508906 C95.7195156,20.1527812 98.656125,23.6819844 101.894719,25.4678594 C100.094953,30.5999531 95.5829063,34.248375 90.3144219,34.248375 C84.6041719,34.248375 79.7828125,29.962625 78.3399375,24.1472656 C85.7048125,23.3302344 90.863375,20.6691406 94.219875,18.1508906 Z M98.93525,35.7276719 C104.853094,35.8534531 109.628516,40.7059844 109.628406,46.6533594 L109.628406,56 L71,56 L71,46.6533594 C71,40.7070781 75.7736719,35.8553125 81.689875,35.7277813 L90.264875,50.1897813 L98.93525,35.7276719 Z M85.5027969,35.7247188 L95.1112812,35.7247188 L90.2805156,43.7824844 L85.5027969,35.7247188 Z" transform="translate(-71)"/>
</svg>
