<svg xmlns="http://www.w3.org/2000/svg" width="59" height="56" viewBox="0 0 59 56">
  <path d="M57.5863644,16.532583 C56.9474656,15.8441457 55.8711093,15.8044696 55.1827854,16.4434818 L51.7429798,19.6375223 C51.6874332,19.6075951 51.6333603,19.5791417 51.5825749,19.553749 C51.1094089,19.3173927 50.5638057,19.2541377 50.0662672,19.5825425 L50.1343968,19.4227045 C50.2432227,19.1675304 50.1243077,18.8723401 49.8690202,18.7636275 C49.6502348,18.670332 49.403336,18.7451498 49.2683239,18.9287935 C49.2857814,18.772583 49.2956437,18.6141053 49.2956437,18.453247 C49.2956437,16.1158704 47.4008259,14.2208259 45.063336,14.2208259 C42.7259595,14.2208259 40.8311417,16.1156437 40.8311417,18.453247 C40.8311417,18.6141053 40.841004,18.7726964 40.8584615,18.9287935 C40.7235628,18.7451498 40.476664,18.6704453 40.2577652,18.7636275 C40.0025911,18.8723401 39.8836761,19.167417 39.9923887,19.4227045 L40.0605182,19.5825425 C39.5629798,19.2540243 39.0172632,19.317166 38.5440972,19.5536356 C38.1848583,19.733085 37.6991093,20.0203401 37.1812794,20.5488259 L31.3313198,16.6629474 C30.5489069,16.1431903 29.4932955,16.3563077 28.9735385,17.1384939 C28.4538947,17.9209069 28.6667854,18.9765182 29.4491984,19.4962753 C41.5794332,27.5540405 40.9021053,27.1067206 40.9858785,27.1552389 C40.5766478,30.5003887 41.0781538,27.6390607 38.3155628,41.90183 C38.2619433,42.1787692 38.3349474,42.4651174 38.5142834,42.6826559 C38.6937328,42.9003077 38.9610364,43.0273846 39.2430769,43.0273846 C39.4915628,43.0273846 39.7739433,43.0273846 40.083417,43.0273846 L38.0187854,53.5511903 C37.772,54.8086964 38.7336356,55.9853765 40.0236761,55.9853765 C40.9795304,55.9853765 41.833247,55.3104291 42.0241457,54.337004 L44.2430607,43.0272713 C44.9223158,43.0272713 45.6118866,43.0272713 46.2859271,43.0272713 L47.9585587,54.2449555 C48.1095547,55.2577166 48.980502,55.9851498 49.9745587,55.9851498 C51.228664,55.9851498 52.1789636,54.8719514 51.9956599,53.6430121 L50.4128097,43.0271579 C50.5796761,43.0271579 50.7381538,43.0271579 50.8834818,43.0271579 C51.165749,43.0271579 51.433166,42.9009879 51.6126154,42.6831093 C51.7921781,42.4652308 51.8647287,42.1787692 51.810996,41.9014899 C49.0487449,27.6399676 49.5644211,30.6189636 49.0902348,26.7423806 L53.4207126,22.7213765 C53.5967611,22.7581053 53.7734899,22.8025425 53.9502186,22.8604696 C54.051336,22.8935709 54.1623158,22.8630769 54.2323725,22.7830445 C54.3023158,22.7028988 54.3175061,22.5887449 54.270915,22.4930688 C54.2065263,22.3604372 54.141004,22.2349474 54.0752551,22.1137652 L57.4976032,18.9358219 C58.1854737,18.2970364 58.2254899,17.2209069 57.5863644,16.532583 Z M47.0626721,23.983417 C45.2704453,23.983417 44.3213927,23.983417 42.3513036,23.983417 L40.1037085,22.4903482 C40.1171984,22.4845668 40.1330688,22.4803725 40.1457652,22.4740243 C40.5303968,22.2818785 40.7928259,21.9439514 40.9030121,21.5610202 L40.9761296,21.7328745 C41.0575223,21.9238866 41.2432065,22.0384939 41.4385263,22.0384939 C41.5042753,22.0384939 41.5709312,22.0255709 41.6350931,21.9981377 C41.8902672,21.8894251 42.0091822,21.5943482 41.9004696,21.3390607 L41.8378947,21.1921457 C42.6141862,22.1053765 43.7705749,22.6854413 45.0631093,22.6854413 C46.3556437,22.6854413 47.5121457,22.1053765 48.2883239,21.1921457 L48.225749,21.3390607 C48.1169231,21.5942348 48.2358381,21.8894251 48.4911255,21.9981377 C48.5554008,22.0255709 48.62217,22.0384939 48.6876923,22.0384939 C48.8830121,22.0384939 49.0688097,21.9238866 49.1500891,21.7328745 L49.2232065,21.5610202 C49.253247,21.6656518 49.2939433,21.7668826 49.3464291,21.8625587 L47.0626721,23.983417 Z"/>
  <circle cx="13.5" cy="17.451" r="4.243"/>
  <path d="M27.3053279,13.186753 C27.8704291,12.4267854 27.7126316,11.3526964 26.952664,10.7875951 C26.1928097,10.2224939 25.1186073,10.3801781 24.5535061,11.1402591 L15.6988178,23.045587 C15.2244049,23.045587 11.624081,23.045587 11.1222348,23.045587 L3.03953036,13.2089717 C2.43838057,12.4775709 1.35782996,12.3715789 0.626089069,12.9727287 C-0.105538462,13.5738785 -0.211303644,14.6545425 0.389846154,15.38617 L8.94016194,25.7919676 L8.94016194,37.1776518 L4.03732794,53.3295709 C3.70722267,54.4170364 4.32118219,55.5660567 5.40853441,55.8961619 C6.49838057,56.2267206 7.64581377,55.6102672 7.97512551,54.5249555 L12.5429798,39.4778462 L14.1367126,39.4778462 L15.6198057,54.1344291 C15.7341862,55.2649717 16.7434332,56.0888745 17.8740891,55.9743806 C19.0046316,55.86 19.8285344,54.8506397 19.7140405,53.7200972 C17.9278219,36.0679676 18.0519514,37.2503158 18.0229312,37.0967126 L18.0229312,25.6672713 L27.3053279,13.186753 Z"/>
  <circle cx="33.463" cy="4.85" r="4.835"/>
</svg>
