<svg xmlns="http://www.w3.org/2000/svg" width="55" height="56" viewBox="0 0 55 56">
  <path d="M43.2810143,14.4221186 C44.0941022,14.4221186 44.3231411,13.3227321 43.5902168,12.9906258 L14.9718119,0.301873211 C13.2311166,-0.476858896 11.1812188,0.301873211 10.4024867,2.05402045 L0.38203681,24.5227321 C-0.396695297,26.2634274 0.38203681,28.3133252 2.13418405,29.0920573 L7.90596319,31.5885808 C8.62743558,31.9092352 9.45197546,31.3824458 9.45197546,30.5922618 L9.45197546,21.0527935 C9.45197546,17.3996237 12.4180286,14.4335706 16.0711984,14.4335706 L43.2810143,14.4335706 L43.2810143,14.4221186 Z"/>
  <path d="M50.7705849,17.537047 L16.0597464,17.537047 C14.1243681,17.537047 12.5554519,19.1059632 12.5554519,21.0413415 L12.5554519,45.5599509 C12.5554519,47.4953292 14.1243681,49.0642454 16.0597464,49.0642454 L20.7206871,49.0642454 C20.6061677,48.3771288 20.548908,47.6785603 20.548908,46.9685399 C20.548908,46.1669039 20.6290716,45.3881718 20.7664949,44.6208916 L17.0102577,44.6208916 L17.0102577,32.8826503 L49.8315256,32.8826503 L49.8315256,44.6094397 L46.0638364,44.6094397 C46.2012597,45.3767198 46.2814233,46.1554519 46.2814233,46.9570879 C46.2814233,47.6671084 46.2241636,48.3656769 46.1096442,49.0527935 L50.7705849,49.0527935 C52.7059632,49.0527935 54.2748793,47.4838773 54.2748793,45.548499 L54.2748793,21.0413415 C54.2748793,19.1059632 52.7059632,17.537047 50.7705849,17.537047 Z M49.8315256,25.6564744 L17.0102577,25.6564744 L17.0102577,21.9804008 L49.8315256,21.9804008 L49.8315256,25.6564744 Z"/>
  <path d="M33.4208916,37.9558609 C28.4507485,37.9558609 24.4196646,41.9869448 24.4196646,46.9570879 C24.4196646,51.9272311 28.4507485,55.9583149 33.4208916,55.9583149 C38.3910348,55.9583149 42.4221186,51.9272311 42.4221186,46.9570879 C42.4221186,41.9869448 38.3910348,37.9558609 33.4208916,37.9558609 Z M36.0090307,50.5071902 C35.6196646,50.9881718 35.1043272,51.3088262 34.5088262,51.4691534 C34.2454315,51.537865 34.1309121,51.6752883 34.142364,51.950135 C34.153816,52.2135297 34.142364,52.4769243 34.142364,52.751771 C34.142364,52.9922618 34.0163926,53.1182331 33.7873538,53.1182331 C33.5010552,53.1296851 33.2147566,53.1296851 32.9284581,53.1182331 C32.6765153,53.1182331 32.5619959,52.9693579 32.5619959,52.7288671 C32.5619959,52.534184 32.5619959,52.339501 32.5619959,52.144818 C32.5619959,51.7210961 32.539092,51.6981922 32.1268221,51.6294806 C31.6000327,51.549317 31.0846953,51.4233456 30.6037137,51.1943067 C30.2257996,51.0110757 30.1799918,50.9194601 30.2945112,50.5186421 C30.3746748,50.2208916 30.4548384,49.9231411 30.546454,49.6368425 C30.6495215,49.2932843 30.741137,49.2589284 31.0617914,49.4192556 C31.6000327,49.6941022 32.1611779,49.8544294 32.7566789,49.9231411 C33.134593,49.9689489 33.5125072,49.934593 33.8675174,49.7742658 C34.5317301,49.4879673 34.6347975,48.7206871 34.0736524,48.2626094 C33.8789693,48.1022822 33.6728344,47.9877628 33.4437955,47.8961472 C32.8597464,47.6442045 32.2527935,47.4495215 31.7145521,47.1174151 C30.8213006,46.5906258 30.2601554,45.8577014 30.3288671,44.7697669 C30.3975787,43.544409 31.0961472,42.7885808 32.2184376,42.3763108 C32.6765153,42.2045317 32.6879673,42.2159836 32.6879673,41.735002 C32.6879673,41.5746748 32.6879673,41.4028957 32.6879673,41.2425685 C32.6994192,40.8761063 32.7566789,40.8188466 33.1231411,40.8073947 C33.2376605,40.8073947 33.35218,40.8073947 33.4552474,40.8073947 C34.2339796,40.8073947 34.2339796,40.8073947 34.2339796,41.5861268 C34.2339796,42.13582 34.2339796,42.13582 34.7836728,42.2159836 C35.1959427,42.2846953 35.5967607,42.3992147 35.9861268,42.5709939 C36.2037137,42.6626094 36.2838773,42.8114847 36.2151656,43.0405235 C36.1235501,43.3726299 36.0319346,43.7161881 35.9174151,44.0368425 C35.8143476,44.346045 35.7112802,44.3918528 35.4135297,44.2544294 C34.8065767,43.9566789 34.1767198,43.8421595 33.5125072,43.8765153 C33.340728,43.8879673 33.1689489,43.9108712 33.0086217,43.9795828 C32.4360245,44.2315256 32.3329571,44.8728344 32.8253906,45.2622004 C33.0773333,45.4568834 33.35218,45.6057587 33.6499305,45.7317301 C34.1652679,45.937865 34.6691534,46.144 35.1615869,46.4188466 C36.6732434,47.2548384 37.0969652,49.1902168 36.0090307,50.5071902 Z"/>
</svg>
