<svg xmlns="http://www.w3.org/2000/svg" width="48" height="56" viewBox="0 0 48 56">
  <path d="M23.7968446,17.4066155 C17.9247076,17.4066155 13.1475999,22.1837232 13.1475999,28.0554337 C13.1475999,33.9275706 17.9247076,38.7046784 23.7968446,38.7046784 C29.668555,38.7046784 34.4456628,33.9275706 34.4456628,28.0554337 C34.4456628,22.1837232 29.668555,17.4066155 23.7968446,17.4066155 Z M30.1192738,26.0500122 L22.4903144,33.6789718 C22.170078,33.9992081 21.7500609,34.1595394 21.3304703,34.1595394 C20.9108797,34.1595394 20.491289,33.9996346 20.1710526,33.6789718 L17.2556652,30.7635843 C16.6151925,30.123538 16.6151925,29.0852217 17.2556652,28.4447491 C17.8957115,27.8042763 18.9340278,27.8042763 19.5745005,28.4447491 L21.3304703,30.2007188 L27.8004386,23.7311769 C28.4404849,23.0907042 29.4788012,23.0907042 30.1192738,23.7311769 C30.7597466,24.3712231 30.7597466,25.4095394 30.1192738,26.0500122 Z"/>
  <path d="M47.5386817,15.2736964 L47.5369761,15.2302022 C47.5126706,14.6933479 47.4964668,14.1253656 47.4866594,13.4934211 C47.4410331,10.4117324 44.991289,7.86263404 41.909174,7.69036309 C35.4831262,7.33174946 30.5120005,5.23635478 26.264498,1.09630851 L26.2282529,1.06176895 C24.8428363,-0.208516055 22.7529849,-0.208516055 21.3671418,1.06176895 L21.3308967,1.09630851 C17.0833943,5.23635478 12.1122685,7.33174946 5.68622079,7.69078947 C2.60453216,7.86263404 0.154361544,10.4117324 0.108735407,13.4938474 C0.0993542612,14.1215278 0.082724117,14.6895102 0.0584185887,15.2302022 L0.0558601637,15.3312621 C-0.0690788928,21.8839547 -0.224293427,30.0391082 2.50389864,37.4412159 C4.00402052,41.5117568 6.27595035,45.050134 9.25615256,47.9586989 C12.6504021,51.2710771 17.0961866,53.9007675 22.4698465,55.7744274 C22.6446759,55.8354045 22.826328,55.8848684 23.0113913,55.9219663 C23.2723562,55.9739888 23.5350268,56 23.7976973,56 C24.0603679,56 24.3234649,55.9739888 24.5840034,55.9219663 C24.7690668,55.8848684 24.9519981,55.834978 25.1276803,55.7735745 C30.494944,53.8965034 34.936038,51.2655336 38.3273027,47.9535818 C41.3062256,45.0441643 43.5781554,41.5049342 45.0795566,37.4335405 C47.8179825,30.0092593 47.6631944,21.8387549 47.5386817,15.2736964 Z M23.7968446,41.9842227 C16.116289,41.9842227 9.86805561,35.7359893 9.86805561,28.0554337 C9.86805561,20.3748782 16.116289,14.1266447 23.7968446,14.1266447 C31.4769736,14.1266447 37.7256335,20.3748782 37.7256335,28.0554337 C37.7256335,35.7359893 31.4769736,41.9842227 23.7968446,41.9842227 Z"/>
</svg>
