<svg xmlns="http://www.w3.org/2000/svg" viewBox="0 0 30 30">
  <path d="M13 3C6.925 3 2 7.477 2 13c0 2.837 1.308 5.388 3.396 7.205-.3.981-.924 1.957-2.072 2.826a.5.5 0 0 1-.002.002A.5.5 0 0 0 3 23.5a.5.5 0 0 0 .5.5.5.5 0 0 0 .102-.012c1.94-.005 3.595-.834 4.912-1.873.625.254 1.277.464 1.957.61A8.156 8.156 0 0 1 10 20c0-1.438.386-2.793 1.055-4H9a1 1 0 0 1 0-2h3.568a9.97 9.97 0 0 1 2.871-2H9a1 1 0 0 1 0-2h8a1 1 0 0 1 1 1c0 .067-.025.126-.037.19A11.08 11.08 0 0 1 20 11c1.382 0 2.7.254 3.898.713C23.202 6.799 18.594 3 13 3zm7 10c-4.418 0-8 3.134-8 7s3.582 7 8 7a8.966 8.966 0 0 0 2.984-.51c1.227.857 2.71 1.492 4.41 1.498A.5.5 0 0 0 27.5 28a.5.5 0 0 0 .5-.5.5.5 0 0 0-.328-.469c-.915-.695-1.502-1.46-1.854-2.238C27.168 23.54 28 21.857 28 20c0-3.866-3.582-7-8-7zm-3 4h6a1 1 0 0 1 0 2h-6a1 1 0 0 1 0-2zm0 4h6a1 1 0 0 1 0 2h-6a1 1 0 0 1 0-2z"/>
</svg>
