<svg xmlns="http://www.w3.org/2000/svg" width="17" height="16" viewBox="0 0 17 16">
  <path d="M80.8072732,6.04194996 C80.7237536,5.78591784 80.5028657,5.6004486 80.2359911,5.56164393 L75.2729712,4.83943147 L73.0516254,0.360770296 C72.8123494,-0.120256765 72.0216596,-0.120256765 71.7823836,0.360770296 L69.5610378,4.84008695 L64.605814,5.56161116 C64.3389393,5.60041582 64.1173607,5.7866061 64.0345318,6.04191719 C63.951703,6.29722827 64.0203871,6.57725111 64.2136434,6.76485069 L67.7984085,10.2511416 L66.9553175,15.1762203 C66.9092978,15.4407081 67.0183109,15.7080146 67.2370606,15.8659863 C67.3602183,15.9548699 67.5060734,16 67.6525863,16 C67.765152,16 67.8784084,15.9731907 67.9838688,15.9181956 L72.4180736,13.594242 L76.8600744,15.9188838 C77.0986267,16.0429998 77.3881658,16.0239579 77.6054682,15.864577 C77.8234942,15.7066053 77.9318164,15.4392988 77.8864876,15.1740899 L77.037015,10.2504206 L80.6281287,6.76412965 C80.821418,6.57725111 80.8907929,6.29794931 80.8072732,6.04194996 Z" transform="translate(-64)"/>
</svg>
