<svg xmlns="http://www.w3.org/2000/svg" viewBox="0 0 30 30">
  <path d="M6.53 2.516a1 1 0 0 0-.721.293 1 1 0 0 0 0 1.414 1 1 0 0 0 1.414 0 1 1 0 0 0 0-1.414 1 1 0 0 0-.694-.293zm16.97 0a1 1 0 0 0-.723.293 1 1 0 0 0 0 1.414 1 1 0 0 0 1.414 0 1 1 0 0 0 0-1.414 1 1 0 0 0-.691-.293zM15 3a9 9 0 0 0-9 9c0 5 4 7 6 11h6c2-4 6-6 6-11a9 9 0 0 0-9-9zm0 3v5h4l-4 7v-5h-4l4-7zM3 11a1 1 0 0 0-1 1 1 1 0 0 0 1 1 1 1 0 0 0 1-1 1 1 0 0 0-1-1zm24 0a1 1 0 0 0-1 1 1 1 0 0 0 1 1 1 1 0 0 0 1-1 1 1 0 0 0-1-1zM6.53 19.484a1 1 0 0 0-.723.293 1 1 0 0 0 0 1.414 1 1 0 0 0 1.416 0 1 1 0 0 0 0-1.414 1 1 0 0 0-.694-.293zm16.968.002a1 1 0 0 0-.72.291 1 1 0 0 0 0 1.416 1 1 0 0 0 1.413 0 1 1 0 0 0 0-1.416 1 1 0 0 0-.693-.29zM12 25v1a2 2 0 0 0 2 2 1 1 0 0 0 1 1 1 1 0 0 0 1-1 2 2 0 0 0 2-2v-1h-6z"/>
</svg>
