<svg xmlns="http://www.w3.org/2000/svg" viewBox="0 0 96 86">
  <g fill="none" fill-rule="evenodd">
    <polygon fill="#FDB300" points="20.903 2.831 47.903 0 74.903 2.831 95.806 30.666 47.903 86 0 30.666"/>
    <g transform="translate(0 30.666)">
      <polygon fill="#EA6C00" points="19.403 0 47.903 55.334 0 0"/>
      <polygon fill="#EA6C00" points="67.307 0 95.807 55.334 47.904 0" transform="matrix(-1 0 0 1 143.71 0)"/>
      <polygon fill="#FDAD00" points="19.403 0 76.403 0 47.903 55.334"/>
    </g>
    <polygon fill="#FDD231" points="47.903 0 20.903 2.831 19.403 30.666"/>
    <polygon fill="#FDD231" points="76.403 0 49.403 2.831 47.903 30.666" transform="matrix(-1 0 0 1 124.307 0)"/>
    <polygon fill="#FDAD00" points="74.904 30.666 95.807 2.831 94.307 30.666" transform="matrix(-1 0 0 1 170.71 0)"/>
    <polygon fill="#FDAD00" points="0 30.666 20.903 2.831 19.403 30.666"/>
    <polygon fill="#FEEEB7" points="47.903 0 19.403 30.666 76.403 30.666"/>
  </g>
</svg>
