<?xml version="1.0" encoding="UTF-8"?>
<svg viewBox="0 0 16 16" version="1.1" xmlns="http://www.w3.org/2000/svg" xmlns:xlink="http://www.w3.org/1999/xlink">
    <!-- Generator: Sketch 55.2 (78181) - https://sketchapp.com -->
    <title>ta-empty</title>
    <desc>Created with Sketch.</desc>
    <g id="Page-1" stroke="none" stroke-width="1" fill="none" fill-rule="evenodd">
        <g id="ta-empty">
            <path d="M1.64179526,8.01670878 C1.64179526,4.54682926 4.53336153,1.655263 8.00324105,1.655263 C11.4731206,1.655263 14.3646868,4.54682926 14.3646868,8.01670878 C14.3646868,11.4865883 11.4731206,14.3781546 8.00324105,14.3781546 C4.53336153,14.3781546 1.64179526,11.5829738 1.64179526,8.01670878" id="Fill-22-path" fill="#FFFFFF"></path>
            <g id="Group-3" fill="#00A680" fill-rule="nonzero">
                <path d="M1.64179526,8.01670878 C1.64179526,4.54682926 4.53336153,1.655263 8.00324105,1.655263 C11.4731206,1.655263 14.3646868,4.54682926 14.3646868,8.01670878 C14.3646868,11.4865883 11.4731206,14.3781546 8.00324105,14.3781546 C4.53336153,14.3781546 1.64179526,11.5829738 1.64179526,8.01670878 M0,8 C0,12.4337349 3.56626506,16 8,16 C12.4337349,16 16,12.4337349 16,8 C16,3.56626506 12.4337349,0 8,0 C3.56626506,0.0963855422 0,3.6626506 0,8" id="Fill-22"></path>
            </g>
            <path d="M1.64179526,8.01670878 C1.64179526,4.54682926 4.53336153,1.655263 8.00324105,1.655263 C11.4731206,1.655263 14.3646868,4.54682926 14.3646868,8.01670878 C14.3646868,11.4865883 11.4731206,14.3781546 8.00324105,14.3781546 C4.53336153,14.3781546 1.64179526,11.5829738 1.64179526,8.01670878" id="Fill-22-path" fill="#FFFFFF"></path>
        </g>
    </g>
</svg>