<?xml version="1.0" encoding="UTF-8"?>
<svg viewBox="0 0 16 16" version="1.1" xmlns="http://www.w3.org/2000/svg" xmlns:xlink="http://www.w3.org/1999/xlink">
    <!-- Generator: Sketch 55.2 (78181) - https://sketchapp.com -->
    <title>ta-full</title>
    <desc>Created with Sketch.</desc>
    <g id="Page-1" stroke="none" stroke-width="1" fill="none" fill-rule="evenodd">
        <g id="ta-full">
            <g id="Group-3">
                <path d="M1.64179526,8.01670878 C1.64179526,4.54682926 4.53336153,1.655263 8.00324105,1.655263 C11.4731206,1.655263 14.3646868,4.54682926 14.3646868,8.01670878 C14.3646868,11.4865883 11.4731206,14.3781546 8.00324105,14.3781546 C4.53336153,14.3781546 1.64179526,11.5829738 1.64179526,8.01670878" id="Fill-22-path" fill="#FFFFFF"></path>
                <path d="M1.64179526,8.01670878 C1.64179526,11.5829738 4.53336153,14.3781546 8.00324105,14.3781546 C11.4731206,14.3781546 14.3646868,11.4865883 14.3646868,8.01670878 C14.3646868,4.54682926 11.4731206,1.655263 8.00324105,1.655263 C4.53336153,1.655263 1.64179526,4.54682926 1.64179526,8.01670878 Z M0,8 C0,3.6626506 3.56626506,0.0963855422 8,0 C12.4337349,0 16,3.56626506 16,8 C16,12.4337349 12.4337349,16 8,16 C3.56626506,16 0,12.4337349 0,8 Z M3.99918286,7.9913444 C3.99918286,5.74744196 5.8528414,3.9913444 7.99918286,3.9913444 C10.2430853,3.9913444 11.9991829,5.74744196 11.9991829,7.9913444 C11.9991829,10.2352468 10.2430853,11.9913444 7.99918286,11.9913444 C5.75528042,11.9913444 3.99918286,10.2352468 3.99918286,7.9913444 Z" id="Combined-Shape" fill="#00A680" fill-rule="nonzero"></path>
            </g>
        </g>
    </g>
</svg>