<?xml version="1.0" encoding="UTF-8"?>
<svg viewBox="0 0 32 20" version="1.1" xmlns="http://www.w3.org/2000/svg" xmlns:xlink="http://www.w3.org/1999/xlink">
    <g id="Page-1" stroke="none" stroke-width="1" fill="none" fill-rule="evenodd">
        <g id="ta-logo" transform="translate(0.047063, 0.829029)" fill-rule="nonzero">
            <path d="M6.4969697,2.52121212 L5.32907052e-15,2.52121212 L1.55151515,4.65454545 C1.74545455,4.94545455 2.23030303,5.62424242 2.42424242,6.3030303 C1.64848485,7.56363636 1.26060606,9.01818182 1.26060606,10.4727273 C1.26060606,14.9333333 4.84848485,18.5212121 9.30909091,18.5212121 C11.1515152,18.5212121 12.8969697,17.8424242 14.3515152,16.7757576 L16.0110502,19.2 L17.6969481,16.7757576 C18.1537686,17.2077004 18.6291427,17.5562166 19.2323682,17.8832694 C20.2990349,18.3681179 21.3333333,18.6181818 22.4969697,18.6181818 C23.4666667,18.6181818 24.3393939,18.4242424 25.3090909,18.1333333 C29.4787879,16.5818182 31.6121212,11.9272727 30.0606061,7.85454545 C29.8666667,7.36969697 29.6727273,6.88484848 29.3818182,6.4 C29.6727273,5.72121212 30.1575758,4.94545455 30.2545455,4.75151515 L31.8060606,2.61818182 L25.1151515,2.61818182 C22.5939394,0.775757576 19.3939394,-7.10542736e-15 16,-7.10542736e-15 C12.4121212,-7.10542736e-15 9.11515152,0.872727273 6.4969697,2.52121212 Z" id="Combined-Shape" fill="#FFFFFF"></path>
            <path d="M7.27272727,4.36363636 C9.79393939,4.07272727 16.8727273,3.78181818 14.9333333,14.0606061 L17.1636364,13.8666667 C16.1939394,7.56363636 18.230303,4.26666667 24.5333333,3.97575758 C14.0606061,-1.74545455 8.04848485,4.26666667 7.27272727,4.36363636" id="Fill-3" fill="#FBC40F"></path>
            <path d="M10.3757576,10.2787879 C10.3757576,10.8606061 9.89090909,11.3454545 9.30909091,11.3454545 C8.72727273,11.3454545 8.24242424,10.8606061 8.24242424,10.2787879 C8.24242424,9.6969697 8.72727273,9.21212121 9.30909091,9.21212121 C9.89090909,9.21212121 10.3757576,9.6969697 10.3757576,10.2787879" id="Fill-7" fill="#EF6945"></path>
            <path d="M23.7575758,10.2787879 C23.7575758,10.8606061 23.2727273,11.3454545 22.6909091,11.3454545 C22.1090909,11.3454545 21.6242424,10.8606061 21.6242424,10.2787879 C21.6242424,9.6969697 22.1090909,9.21212121 22.6909091,9.21212121 C23.2727273,9.21212121 23.7575758,9.6969697 23.7575758,10.2787879" id="Fill-8" fill="#00A680"></path>
            <path d="M24.5333333,15.4181818 C27.3454545,14.4484848 28.7030303,11.3454545 27.7333333,8.53333333 C26.6666667,5.72121212 23.5636364,4.26666667 20.8484848,5.33333333 C19.4909091,5.81818182 18.4242424,6.88484848 17.8424242,8.14545455 C17.1636364,9.40606061 17.1636364,10.8606061 17.6484848,12.2181818 C18.1333333,13.5757576 19.2,14.6424242 20.4606061,15.2242424 C21.7212121,15.8060606 23.1757576,15.9030303 24.5333333,15.4181818 Z M9.30909091,15.7090909 C12.3151515,15.7090909 14.6424242,13.2848485 14.6424242,10.3757576 C14.6424242,7.46666667 12.2181818,5.04242424 9.30909091,5.04242424 C6.4,5.04242424 3.97575758,7.46666667 3.97575758,10.3757576 C3.97575758,13.2848485 6.4,15.7090909 9.30909091,15.7090909 Z M22.4969697,3.68484848 C20.5575758,2.90909091 18.4242424,2.42424242 16,2.42424242 C13.5757576,2.42424242 11.4424242,2.90909091 9.5030303,3.68484848 C12.8969697,3.78181818 15.8060606,6.4969697 16,9.89090909 C16.0969697,9.11515152 16.1939394,8.33939394 16.5818182,7.56363636 C17.3575758,6.01212121 18.7151515,4.75151515 20.3636364,4.07272727 C21.0424242,3.87878788 21.8181818,3.68484848 22.4969697,3.68484848 Z M28.0242424,6.4 C28.4121212,6.88484848 28.7030303,7.46666667 28.9939394,8.04848485 C30.2545455,11.5393939 28.5090909,15.4181818 25.1151515,16.6787879 C23.369697,17.3575758 21.6242424,17.2606061 19.9757576,16.4848485 C19.0060606,16 18.230303,15.3212121 17.5515152,14.5454545 L16.0969697,16.6787879 L14.6424242,14.5454545 C13.3818182,16.0969697 11.5393939,17.0666667 9.40606061,17.0666667 C5.72121212,17.0666667 2.71515152,14.0606061 2.71515152,10.3757576 C2.71515152,8.92121212 3.2,7.46666667 3.97575758,6.4 C3.58787879,5.13939394 2.61818182,3.78181818 2.61818182,3.78181818 L6.78787879,3.78181818 C9.30909091,2.13333333 12.5090909,1.26060606 16,1.26060606 C19.3939394,1.26060606 22.4,2.13333333 24.9212121,3.78181818 L29.3818182,3.78181818 C29.3818182,3.78181818 28.4121212,5.04242424 28.0242424,6.4 Z M9.21212121,12.5090909 C10.4727273,12.5090909 11.4424242,11.5393939 11.3454545,10.3757576 C11.3454545,9.21212121 10.3757576,8.24242424 9.21212121,8.24242424 C8.04848485,8.24242424 7.07878788,9.21212121 7.07878788,10.3757576 C7.07878788,11.5393939 8.04848485,12.5090909 9.21212121,12.5090909 Z M9.21212121,6.98181818 C11.0545455,6.98181818 12.6060606,8.53333333 12.5090909,10.2787879 C12.5090909,12.1212121 11.0545455,13.5757576 9.21212121,13.5757576 C7.36969697,13.5757576 5.91515152,12.1212121 5.91515152,10.2787879 C5.91515152,8.43636364 7.36969697,6.98181818 9.21212121,6.98181818 Z M22.6909091,12.5090909 C23.8545455,12.5090909 24.8242424,11.5393939 24.8242424,10.3757576 C24.8242424,9.21212121 23.8545455,8.24242424 22.6909091,8.24242424 C21.5272727,8.24242424 20.5575758,9.21212121 20.5575758,10.3757576 C20.5575758,11.5393939 21.5272727,12.5090909 22.6909091,12.5090909 Z M22.6909091,6.98181818 C24.5333333,6.98181818 25.9878788,8.53333333 25.9878788,10.2787879 C25.9878788,12.1212121 24.5333333,13.5757576 22.6909091,13.5757576 C20.8484848,13.5757576 19.3939394,12.1212121 19.3939394,10.2787879 C19.3939394,8.43636364 20.8484848,6.98181818 22.6909091,6.98181818 Z" id="Combined-Shape" fill="#000A12"></path>
        </g>
    </g>
</svg>